<?xml version="1.0" encoding="UTF-8"?>
<svg width="14px" height="14px" viewBox="0 0 14 14" version="1.1" xmlns="http://www.w3.org/2000/svg" xmlns:xlink="http://www.w3.org/1999/xlink">
    <title>Tools and Objects/Copy</title>
    <g id="V3-Desktop" stroke="none" stroke-width="1" fill="none" fill-rule="evenodd">
        <g id="01.13_Buscar_Desktop" transform="translate(-732.000000, -296.000000)" fill="#1973B8">
            <g id="Tools-and-Objects/Copy" transform="translate(731.000000, 295.000000)">
                <path d="M14.6666667,2.66666667 L14.6666667,14.0044015 C14.6666667,14.3439191 14.4110057,14.6239388 14.0816356,14.6622094 L14.0044015,14.6666667 L2.66666667,14.6666667 L4,13.3333333 L13.3333333,13.3333333 L13.3333333,4 L14.6666667,2.66666667 Z M11.3327522,1.33333333 C11.701263,1.33333333 12,1.62975391 12,2.00058111 L12,11.3327522 C12,11.701263 11.7035794,12 11.3327522,12 L2.00058111,12 C1.63207034,12 1.33333333,11.7035794 1.33333333,11.3327522 L1.33333333,2.00058111 C1.33333333,1.63207034 1.62975391,1.33333333 2.00058111,1.33333333 L11.3327522,1.33333333 Z" id="🎨-Change-color-here"></path>
            </g>
        </g>
    </g>
</svg>